<?xml version="1.0" encoding="utf-8"?>
<svg version="1.1" id="Layer_1" xmlns="http://www.w3.org/2000/svg" xmlns:xlink="http://www.w3.org/1999/xlink" x="0px" y="0px"
	 width="80px" height="80px" viewBox="0 0 80 80" enable-background="new 0 0 80 80" xml:space="preserve">
<path fill="#F9E199" d="M40.478,29.451c0.132,0,0.265-0.026,0.39-0.079l8.956-3.788v6.738c-1.398,0.783-5.624,3-9.474,2.918
	c-3.627-0.049-7.254-1.868-8.52-2.57v-6.811l8.257,3.512C40.211,29.425,40.344,29.451,40.478,29.451z M52.721,22.221l1.406-0.672
	l-13.63-5.748l-13.093,5.985l2.251,1.019l0.016-0.037l10.808,4.598l12.23-5.173L52.721,22.221z M21.623,31.166l0.116-0.543
	c0.111-0.519,0.339-0.982,0.641-1.386v-1.003l-5.779-2.437L8.09,29.689l0.986,0.447l0.011-0.027l7.496,3.188L21.623,31.166z
	 M20.741,35.302l0.373-1.749l-4.142,1.752c-0.125,0.053-0.257,0.079-0.39,0.079c-0.133,0-0.266-0.026-0.392-0.08l-5.403-2.298v4.174
	c0.981,0.528,3.351,1.658,5.709,1.689c1.571,0.023,3.227-0.499,4.519-1.041C20.67,37.034,20.558,36.159,20.741,35.302z
	 M62.82,35.384c-0.133,0-0.267-0.026-0.392-0.08l-5.403-2.298v4.174c0.981,0.528,3.35,1.658,5.709,1.689
	c2.508-0.015,5.281-1.338,6.372-1.934v-4.125l-5.896,2.494C63.085,35.357,62.953,35.384,62.82,35.384z M62.839,25.798L54.4,29.656
	v0.066l0.914,0.414l0.011-0.027l7.496,3.188l8.496-3.594l0.008,0.02l0.385-0.184L62.839,25.798z"/>
<path fill="#434C5C" d="M4.78,59.327h13.128c0,0,0,0,0,0c-0.05,0.295-0.096,0.593-0.133,0.895c-0.034,0.263-0.059,0.531-0.082,0.8
	c-0.008,0.102-0.023,0.201-0.029,0.304H4.78C3.247,61.327,2,60.08,2,58.548c0-5.663,3.311-9.592,9.182-11.043
	c-1.711-1.611-2.736-3.909-2.736-6.347c0-1.01,0.18-1.976,0.493-2.878l0,0c-0.095-0.155-0.151-0.332-0.151-0.519v-5.56l-3.525-1.596
	c-0.357-0.162-0.587-0.518-0.587-0.909c0-0.393,0.228-0.748,0.584-0.911l10.909-4.988c0.256-0.117,0.546-0.12,0.805-0.013
	l5.406,2.28v2.171l-5.779-2.437L8.09,29.689l0.986,0.447l0.011-0.027l7.496,3.188l5.039-2.131l-0.509,2.386l-4.142,1.752
	c-0.125,0.053-0.257,0.079-0.39,0.079c-0.133,0-0.266-0.026-0.392-0.08l-5.403-2.298v4.174c0.981,0.528,3.351,1.658,5.709,1.689
	c1.571,0.023,3.227-0.499,4.519-1.041c0.153,0.352,0.338,0.693,0.588,1.002c0.191,0.236,0.412,0.446,0.646,0.642
	c-1.509,0.671-3.614,1.398-5.665,1.398c-0.038,0-0.076-0.001-0.114-0.001c-2.248-0.03-4.417-0.852-5.781-1.497c0,0,0,0,0,0
	c-0.155,0.569-0.244,1.167-0.244,1.786c0,2.557,1.459,4.912,3.716,5.998c0.4,0.193,0.625,0.626,0.553,1.064
	c-0.073,0.438-0.425,0.776-0.866,0.83C7.498,49.821,4,53.194,4,58.548C4,58.978,4.35,59.327,4.78,59.327z M23.062,49.72
	c0.27-0.247,0.553-0.483,0.841-0.715c0.019-0.015,0.037-0.031,0.057-0.047c0.301-0.24,0.613-0.47,0.933-0.693
	c-0.721-0.299-1.488-0.557-2.312-0.76c1.711-1.611,2.737-3.909,2.737-6.347c0-0.155-0.015-0.306-0.023-0.458
	c-0.36-0.036-0.707-0.107-1.042-0.199c-0.019-0.005-0.039-0.009-0.058-0.015c-0.339-0.097-0.661-0.224-0.966-0.376c0,0,0,0,0,0
	c0.053,0.342,0.089,0.691,0.089,1.049c0,2.557-1.459,4.911-3.717,5.998c-0.4,0.193-0.625,0.627-0.553,1.064
	c0.073,0.438,0.425,0.776,0.866,0.83C21.058,49.19,22.106,49.416,23.062,49.72C23.062,49.72,23.062,49.72,23.062,49.72z
	 M61.614,62.766c0,1.944-1.582,3.526-3.527,3.526H23.718c-1.945,0-3.527-1.582-3.527-3.526c0-8.074,4.885-13.602,13.511-15.455
	c-2.708-2.218-4.359-5.616-4.359-9.238c0-1.463,0.273-2.859,0.749-4.153c-0.166-0.182-0.263-0.42-0.263-0.672V25.08l-2.875-1.302
	v8.288h-0.132l0.848,3.98c0.127,0.589-0.678,1.108-1.716,1.108s-1.842-0.519-1.717-1.108l0.848-3.98h-0.131v-9.193l-0.377-0.171
	c-0.357-0.162-0.586-0.518-0.587-0.909c-0.001-0.393,0.228-0.748,0.584-0.911L40.065,13.8c0.255-0.117,0.546-0.12,0.804-0.013
	l16.085,6.783c0.362,0.153,0.602,0.505,0.611,0.898c0.009,0.394-0.214,0.756-0.568,0.926l-5.174,2.473v8.031
	c0,0.241-0.091,0.468-0.244,0.647c0.567,1.395,0.883,2.923,0.883,4.526c0,3.622-1.651,7.021-4.359,9.238
	C56.729,49.163,61.613,54.69,61.614,62.766z M40.479,27.365l12.23-5.173l0.012,0.028l1.406-0.672l-13.63-5.748l-13.093,5.985
	l2.251,1.019l0.016-0.037L40.479,27.365z M40.867,29.372c-0.125,0.053-0.257,0.079-0.39,0.079c-0.133,0-0.267-0.026-0.392-0.08
	l-8.257-3.512v6.811c1.266,0.702,4.893,2.521,8.52,2.57c3.85,0.082,8.076-2.135,9.474-2.918v-6.738L40.867,29.372z M59.614,62.766
	c-0.001-7.843-5.099-12.78-14.354-13.903c-0.441-0.054-0.794-0.392-0.866-0.83c-0.073-0.438,0.152-0.871,0.553-1.064
	c3.351-1.614,5.516-5.106,5.516-8.896c0-1.227-0.23-2.398-0.631-3.482c-2.022,1.035-5.754,2.652-9.351,2.652
	c-0.053,0-0.105,0-0.158-0.001c-3.377-0.045-6.63-1.382-8.475-2.3c0,0,0,0,0,0c-0.323,0.985-0.506,2.036-0.506,3.132
	c0,3.79,2.165,7.283,5.516,8.896c0.4,0.193,0.625,0.627,0.552,1.064c-0.072,0.438-0.425,0.776-0.866,0.83
	c-9.256,1.123-14.354,6.061-14.354,13.902c0,0.842,0.685,1.526,1.527,1.526h34.369C58.929,64.292,59.614,63.607,59.614,62.766z
	 M78,58.548c0,1.532-1.247,2.779-2.779,2.779h-11.08c-0.007-0.103-0.021-0.201-0.029-0.303c-0.023-0.269-0.048-0.538-0.082-0.802
	c-0.037-0.302-0.083-0.599-0.133-0.895c0,0,0,0,0,0h11.325c0.43,0,0.779-0.35,0.779-0.779c-0.001-5.353-3.498-8.726-9.849-9.497
	c-0.44-0.054-0.793-0.392-0.865-0.83c-0.073-0.438,0.152-0.871,0.553-1.064c2.257-1.087,3.716-3.441,3.716-5.998
	c0-0.711-0.112-1.396-0.315-2.038c-1.501,0.739-3.997,1.75-6.418,1.75c-0.039,0-0.076-0.001-0.115-0.001
	c-2.248-0.03-4.417-0.852-5.78-1.498c-0.155,0.569-0.244,1.167-0.244,1.787c0,2.558,1.459,4.912,3.717,5.998
	c0.4,0.193,0.625,0.626,0.553,1.064s-0.425,0.776-0.866,0.83c-0.616,0.075-1.197,0.181-1.759,0.305c0,0-0.001,0-0.001-0.001
	c-0.318-0.272-0.646-0.536-0.988-0.789c-0.004-0.003-0.008-0.005-0.011-0.008c-0.34-0.251-0.69-0.494-1.053-0.725h0
	c0.371-0.12,0.751-0.23,1.145-0.328c-1.693-1.593-2.711-3.861-2.732-6.269c0,0,0,0,0,0c0.088-0.393,0.155-0.792,0.211-1.194
	c0.002-0.014,0.003-0.029,0.005-0.043c0.053-0.395,0.087-0.794,0.108-1.195c0.049-0.177,0.108-0.349,0.168-0.522
	c-0.096-0.155-0.153-0.334-0.153-0.522v-5.56L54.4,31.918v-2.196l0.914,0.414l0.011-0.027l7.496,3.188l8.496-3.594l0.008,0.02
	l0.385-0.184l-8.872-3.742L54.4,29.656v-2.199l8.006-3.661c0.255-0.116,0.548-0.12,0.805-0.013l11.327,4.777
	c0.362,0.153,0.602,0.505,0.611,0.898c0.009,0.394-0.214,0.756-0.568,0.926l-3.475,1.66v5.47c0,0.18-0.05,0.352-0.139,0.503
	c0,0,0,0,0,0c0.374,0.974,0.587,2.031,0.587,3.139c0,2.438-1.025,4.735-2.736,6.347C74.688,48.956,77.999,52.885,78,58.548z
	 M69.106,32.811l-5.896,2.494c-0.125,0.053-0.257,0.079-0.39,0.079s-0.267-0.026-0.392-0.08l-5.403-2.298v4.174
	c0.981,0.528,3.35,1.658,5.709,1.689c2.508-0.015,5.281-1.338,6.372-1.934V32.811z"/>
<path fill="#F0F1F3" d="M19.048,48.221c0.073,0.438,0.425,0.776,0.866,0.83c1.144,0.139,2.192,0.365,3.147,0.67
	c-2.735,2.501-4.501,5.756-5.154,9.607H4.78c-0.43,0-0.78-0.35-0.78-0.779c0-5.354,3.498-8.727,9.849-9.497
	c0.441-0.054,0.793-0.392,0.866-0.83c0.072-0.438-0.153-0.871-0.553-1.064c-2.257-1.086-3.716-3.441-3.716-5.998
	c0-0.62,0.089-1.217,0.244-1.786c1.364,0.645,3.532,1.468,5.781,1.497c0.038,0,0.076,0.001,0.114,0.001
	c2.054,0,4.162-0.729,5.672-1.401c0.297,0.244,0.619,0.464,0.973,0.64c0.053,0.342,0.089,0.691,0.089,1.049
	c0,2.557-1.459,4.911-3.717,5.998C19.201,47.35,18.976,47.783,19.048,48.221z M66.151,49.051c-0.44-0.054-0.793-0.392-0.865-0.83
	c-0.073-0.438,0.152-0.871,0.553-1.064c2.257-1.087,3.716-3.441,3.716-5.998c0-0.711-0.112-1.396-0.315-2.038
	c-1.501,0.739-3.997,1.75-6.418,1.75c-0.039,0-0.076-0.001-0.115-0.001c-2.248-0.03-4.417-0.852-5.78-1.498
	c-0.155,0.569-0.244,1.167-0.244,1.787c0,2.558,1.459,4.912,3.717,5.998c0.4,0.193,0.625,0.626,0.553,1.064s-0.425,0.776-0.866,0.83
	c-0.616,0.075-1.197,0.181-1.759,0.305c2.971,2.546,4.885,5.931,5.57,9.972h11.325c0.43,0,0.779-0.35,0.779-0.779
	C75.999,53.195,72.502,49.822,66.151,49.051z M31.849,34.941c-0.323,0.985-0.506,2.036-0.506,3.132c0,3.79,2.165,7.283,5.516,8.896
	c0.4,0.193,0.625,0.627,0.552,1.064c-0.072,0.438-0.425,0.776-0.866,0.83c-9.256,1.123-14.354,6.061-14.354,13.902
	c0,0.842,0.685,1.526,1.527,1.526h34.369c0.842,0,1.527-0.685,1.527-1.526c-0.001-7.843-5.099-12.78-14.354-13.903
	c-0.441-0.054-0.794-0.392-0.866-0.83c-0.073-0.438,0.152-0.871,0.553-1.064c3.351-1.614,5.516-5.106,5.516-8.896
	c0-1.227-0.23-2.398-0.631-3.482c0.01-0.005,0.018-0.01,0.028-0.015c-2.013,1.034-5.763,2.667-9.379,2.667
	c-0.053,0-0.105,0-0.158-0.001c-3.446-0.046-6.751-1.433-8.573-2.35C31.785,34.908,31.812,34.923,31.849,34.941z M31.087,34.544
	c0.094,0.051,0.193,0.103,0.302,0.16C31.284,34.649,31.179,34.594,31.087,34.544z"/>
<path fill="#FFFFFF" d="M72.124,46.507c0.927-1.613,1.431-3.46,1.431-5.349c0-1.078-0.163-2.145-0.484-3.18
	c0.023-0.152,0.036-0.308,0.036-0.463v-4.209l2.339-1.117c1.062-0.509,1.729-1.598,1.703-2.779
	c-0.029-1.176-0.748-2.232-1.833-2.691l-11.333-4.779c-0.369-0.154-0.759-0.232-1.159-0.232c-0.434,0-0.853,0.091-1.248,0.271
	l-2.488,1.138c0.318-0.495,0.491-1.083,0.478-1.696c-0.029-1.176-0.748-2.232-1.833-2.691l-16.093-6.786
	c-0.369-0.154-0.759-0.232-1.158-0.232c-0.435,0-0.855,0.092-1.247,0.271l-15.491,7.082c-1.068,0.488-1.756,1.562-1.753,2.735
	c0.002,0.846,0.363,1.638,0.965,2.195v0.143l-5.212-2.198c-0.369-0.153-0.758-0.231-1.157-0.231c-0.434,0-0.854,0.092-1.247,0.271
	l-10.91,4.989c-1.066,0.487-1.753,1.56-1.752,2.732c0.001,1.172,0.692,2.242,1.763,2.729l2.35,1.063v4.27
	c0,0.182,0.017,0.362,0.05,0.54c-0.261,0.938-0.393,1.896-0.393,2.857c0,1.888,0.504,3.735,1.43,5.349
	C2.831,48.686,0,52.949,0,58.548c0,2.636,2.144,4.779,4.78,4.779h12.883l0.554-0.025c0.271,2.797,2.634,4.99,5.501,4.99h34.369
	c2.858,0,5.217-2.18,5.499-4.965h11.635c2.636,0,4.779-2.144,4.779-4.779C79.999,52.949,77.168,48.686,72.124,46.507z
	 M17.908,59.327C17.908,59.327,17.908,59.327,17.908,59.327c-0.05,0.296-0.096,0.593-0.133,0.896
	c-0.034,0.263-0.059,0.531-0.082,0.8c-0.008,0.102-0.023,0.201-0.029,0.304H4.78C3.247,61.327,2,60.08,2,58.548
	c0-5.663,3.311-9.592,9.182-11.043c-1.711-1.611-2.736-3.909-2.736-6.347c0-1.01,0.18-1.976,0.493-2.878l0,0
	c-0.095-0.155-0.151-0.332-0.151-0.519v-5.56l-3.525-1.596c-0.357-0.162-0.587-0.518-0.587-0.909c0-0.393,0.228-0.748,0.584-0.911
	l10.909-4.988c0.256-0.117,0.546-0.12,0.805-0.013l5.406,2.28v2.171v1.003c-0.302,0.403-0.53,0.867-0.641,1.386l-0.116,0.543
	l-0.509,2.386l-0.373,1.749c-0.183,0.858-0.071,1.733,0.274,2.527c0.153,0.352,0.338,0.693,0.588,1.002
	c0.191,0.236,0.411,0.446,0.646,0.642c0.002-0.001,0.005-0.002,0.007-0.003c0.297,0.244,0.619,0.464,0.973,0.64c0,0,0,0,0,0
	c0.305,0.152,0.626,0.279,0.966,0.376c0.019,0.006,0.039,0.009,0.058,0.015c0.335,0.092,0.681,0.163,1.042,0.199
	c0.008,0.153,0.023,0.304,0.023,0.458c0,2.438-1.026,4.735-2.737,6.347c0.824,0.204,1.591,0.461,2.312,0.76
	c-0.32,0.223-0.633,0.453-0.933,0.693c-0.019,0.015-0.037,0.031-0.057,0.047c-0.289,0.232-0.571,0.469-0.841,0.715c0,0,0,0,0,0
	C20.326,52.221,18.56,55.477,17.908,59.327z M58.087,66.292H23.718c-1.945,0-3.527-1.582-3.527-3.526
	c0-8.074,4.885-13.602,13.511-15.455c-2.708-2.218-4.359-5.616-4.359-9.238c0-1.463,0.273-2.859,0.749-4.153
	c-0.166-0.182-0.263-0.42-0.263-0.672V25.08l-2.875-1.302v8.288h-0.132l0.848,3.98c0.127,0.589-0.678,1.108-1.716,1.108
	s-1.842-0.519-1.717-1.108l0.848-3.98h-0.131v-9.193l-0.377-0.171c-0.357-0.162-0.586-0.518-0.587-0.909
	c-0.001-0.393,0.228-0.748,0.584-0.911L40.065,13.8c0.255-0.117,0.546-0.12,0.804-0.013l16.085,6.783
	c0.362,0.153,0.602,0.505,0.611,0.898c0.009,0.394-0.214,0.756-0.568,0.926l-5.174,2.473v8.031c0,0.241-0.091,0.468-0.244,0.647
	c0.567,1.395,0.883,2.923,0.883,4.526c0,3.622-1.651,7.021-4.359,9.238c8.626,1.854,13.511,7.381,13.512,15.456
	C61.614,64.71,60.032,66.292,58.087,66.292z M75.221,61.327h-11.08c-0.007-0.103-0.021-0.201-0.029-0.303
	c-0.023-0.269-0.048-0.538-0.082-0.802c-0.037-0.302-0.083-0.599-0.133-0.895c0,0,0,0,0,0c-0.685-4.041-2.599-7.425-5.57-9.972
	c0,0-0.001,0-0.001-0.001c-0.318-0.272-0.646-0.536-0.988-0.789c-0.004-0.003-0.008-0.005-0.011-0.008
	c-0.34-0.251-0.69-0.494-1.053-0.725h0c0.371-0.12,0.751-0.23,1.145-0.328c-1.693-1.593-2.711-3.861-2.732-6.269c0,0,0,0,0,0
	c0.088-0.393,0.155-0.792,0.211-1.194c0.002-0.014,0.003-0.029,0.005-0.043c0.053-0.395,0.087-0.794,0.108-1.195
	c0.049-0.177,0.108-0.349,0.168-0.522c-0.096-0.155-0.153-0.334-0.153-0.522v-5.56L54.4,31.918v-2.196v-0.066v-2.199l8.006-3.661
	c0.255-0.116,0.548-0.12,0.805-0.013l11.327,4.777c0.362,0.153,0.602,0.505,0.611,0.898c0.009,0.394-0.214,0.756-0.568,0.926
	l-3.475,1.66v5.47c0,0.18-0.05,0.352-0.139,0.503c0,0,0,0,0,0c0.374,0.974,0.587,2.031,0.587,3.139c0,2.438-1.025,4.735-2.736,6.347
	c5.869,1.451,9.181,5.38,9.182,11.043C78,60.08,76.753,61.327,75.221,61.327z"/>
</svg>
