<?xml version="1.0" encoding="utf-8"?>
<svg version="1.1" id="Layer_1" xmlns="http://www.w3.org/2000/svg" xmlns:xlink="http://www.w3.org/1999/xlink" x="0px" y="0px"
	 width="17px" height="17px" viewBox="0 0 17 17" enable-background="new 0 0 17 17" xml:space="preserve">
<path fill="#FFFFFF" d="M10.485,1.992c0.385,0,0.769,0.146,1.062,0.439c0.586,0.585,0.586,1.536,0,2.121L7.623,8.477l3.972,3.971
	c0.586,0.586,0.586,1.534,0,2.12c-0.294,0.293-0.678,0.439-1.062,0.439s-0.769-0.146-1.062-0.439L3.381,8.477l6.045-6.045
	C9.72,2.139,10.103,1.992,10.485,1.992 M10.485,0.992c-0.668,0-1.295,0.26-1.768,0.732L2.674,7.77L1.967,8.477l0.707,0.707
	l6.093,6.092c0.472,0.474,1.1,0.732,1.768,0.732c0.667,0,1.295-0.26,1.768-0.732c0.975-0.975,0.975-2.561,0-3.534L9.038,8.477
	l3.217-3.216c0.473-0.472,0.732-1.1,0.732-1.768s-0.262-1.296-0.732-1.768C11.781,1.252,11.153,0.992,10.485,0.992L10.485,0.992z"/>
<path fill="#333333" d="M9.426,2.432c0.294-0.293,0.677-0.439,1.062-0.439c0.384,0,0.768,0.146,1.061,0.439
	c0.586,0.585,0.586,1.536,0,2.121L7.623,8.477l3.972,3.971c0.586,0.586,0.586,1.534,0,2.12c-0.294,0.293-0.678,0.439-1.062,0.439
	s-0.769-0.146-1.062-0.439L3.381,8.477L9.426,2.432z"/>
</svg>
