<?xml version="1.0" encoding="utf-8"?>
<svg version="1.1" id="Layer_1" xmlns="http://www.w3.org/2000/svg" xmlns:xlink="http://www.w3.org/1999/xlink" x="0px" y="0px"
	 width="17px" height="17px" viewBox="0 0 17 17" enable-background="new 0 0 17 17" xml:space="preserve">
<path fill="#FFFFFF" d="M6.513,1.992c0.384,0,0.768,0.146,1.061,0.439l6.045,6.045l-6.093,6.092
	c-0.292,0.293-0.676,0.439-1.06,0.439s-0.768-0.146-1.061-0.439c-0.586-0.586-0.586-1.535,0-2.121l3.972-3.971L5.452,4.553
	c-0.586-0.585-0.586-1.535,0-2.121C5.745,2.139,6.129,1.992,6.513,1.992 M6.513,0.992c-0.667,0-1.295,0.26-1.768,0.732
	c-0.472,0.472-0.732,1.1-0.732,1.768s0.26,1.296,0.732,1.769l3.217,3.216L4.698,11.74c-0.975,0.976-0.975,2.562,0,3.535
	c0.472,0.473,1.1,0.732,1.768,0.732s1.295-0.26,1.768-0.732l6.092-6.092l0.707-0.707L14.326,7.77L8.28,1.725
	C7.808,1.252,7.18,0.992,6.513,0.992L6.513,0.992z"/>
<path fill="#333333" d="M13.619,8.477l-6.093,6.092c-0.292,0.293-0.676,0.439-1.06,0.439s-0.768-0.146-1.061-0.439
	c-0.586-0.586-0.586-1.535,0-2.121l3.972-3.971L5.452,4.553c-0.586-0.585-0.586-1.535,0-2.121c0.293-0.293,0.677-0.439,1.061-0.439
	c0.384,0,0.768,0.146,1.061,0.439L13.619,8.477z"/>
</svg>
