<svg id="Artwork" xmlns="http://www.w3.org/2000/svg" 
x="0px" y="0px"
width="170px" height="23px" 
viewBox="0 0 351.72 82.06">
<defs><style>.cls-1{fill:#fff;}</style></defs><polygon class="cls-1" points="175.88 29.45 164.67 49.31 157.51 49.31 149.78 63.02 194.8 63.02 175.88 29.45"/><polygon class="cls-1" points="115.65 0 77.16 0 85.28 8.97 85.28 45 43.45 0 0 0 8.11 8.97 8.11 81.87 38.48 81.87 38.48 32.33 83.42 81.87 99.86 81.87 115.65 53.7 115.65 0"/><polygon class="cls-1" points="299.57 0 307.69 8.97 307.69 63.02 264.32 63.02 264.32 0 225.86 0 233.96 8.97 233.96 49.38 252.29 81.87 338.19 81.87 338.19 0 299.57 0"/><polygon class="cls-1" points="141.14 0 149.25 8.97 108.22 81.87 132 81.87 153.69 43.38 160.85 43.37 175.87 16.7 204.81 68.19 173.21 68.19 180.9 81.87 243.66 81.87 197.44 0 141.14 0"/><path class="cls-1" d="M560.78,310.26a4.65,4.65,0,1,1,1.37-3.3A4.47,4.47,0,0,1,560.78,310.26Zm-6.13-6.13a3.85,3.85,0,0,0-1.17,2.83,4,4,0,0,0,1.16,2.86,4,4,0,0,0,5.68,0,3.92,3.92,0,0,0,1.17-2.86,4,4,0,0,0-6.84-2.83Zm2.74.26a4,4,0,0,1,1.4.18,1.27,1.27,0,0,1,.79,1.3,1.12,1.12,0,0,1-.5,1,1.94,1.94,0,0,1-.74.24,1.27,1.27,0,0,1,.88.51,1.36,1.36,0,0,1,.28.79v.37c0,.12,0,.25,0,.38a.63.63,0,0,0,0,.27l0,.06h-.85v-.05a.43.43,0,0,1,0-.05l0-.17v-.4a1.25,1.25,0,0,0-.48-1.17,2.18,2.18,0,0,0-1-.17h-.71v2h-.9v-5.11Zm1,.8a2.41,2.41,0,0,0-1.09-.19h-.77v1.86h.82a2.35,2.35,0,0,0,.86-.12.91.91,0,0,0,.18-1.55Z" transform="translate(-210.43 -229.58)"/></svg>