<?xml version="1.0" encoding="utf-8"?>
<svg version="1.1" id="header-search" xmlns="http://www.w3.org/2000/svg" xmlns:xlink="http://www.w3.org/1999/xlink" x="0px" y="0px" width="25px" height="25px" viewBox="0 0 25 25">
<path fill="#FFFFFF" d="M23.196,21.729l-6.489-6.49c1.173-1.494,1.813-3.329,1.813-5.229c0-4.692-3.818-8.509-8.511-8.509
	C5.317,1.5,1.5,5.317,1.5,10.009c0,4.692,3.817,8.51,8.509,8.51c1.9,0,3.735-0.639,5.229-1.812l6.49,6.489
	c0.195,0.196,0.456,0.304,0.733,0.304c0.274,0,0.541-0.11,0.734-0.304C23.602,22.792,23.602,22.133,23.196,21.729z M10.009,16.443
	c-3.548,0-6.435-2.887-6.435-6.435s2.887-6.435,6.435-6.435c3.547,0,6.434,2.887,6.434,6.435S13.556,16.443,10.009,16.443z"/>
</svg>
